<svg xmlns="http://www.w3.org/2000/svg" viewBox="0 0 512 512" width="100%" height="100%">
  <defs>
    <linearGradient id="golan-grad-bg" x1="0%" y1="0%" x2="100%" y2="100%">
      <stop offset="0%" stop-color="#136E46" />
      <stop offset="50%" stop-color="#1F9E64" />
      <stop offset="100%" stop-color="#104B30" />
    </linearGradient>
    <linearGradient id="golan-grad-g" x1="0%" y1="0%" x2="100%" y2="100%">
      <stop offset="0%" stop-color="#FFFFFF" />
      <stop offset="100%" stop-color="#E2F7ED" />
    </linearGradient>
    <filter id="shadow" x="-10%" y="-10%" width="120%" height="120%">
      <feDropShadow dx="0" dy="8" stdDeviation="12" flood-color="#0A3320" flood-opacity="0.3" />
    </filter>
  </defs>

  <!-- Base Rounded Rectangle Container -->
  <rect width="440" height="440" x="36" y="36" rx="96" fill="url(#golan-grad-bg)" filter="url(#shadow)" />

  <!-- Stylized 'G' Brand Symbol -->
  <path d="M 280,140 
           C 190,140 140,190 140,260 
           C 140,330 190,380 270,380 
           C 330,380 370,345 370,290 
           L 260,290 
           L 260,240 
           L 420,240 
           L 420,300 
           C 420,375 355,430 265,430 
           C 150,430 80,350 80,260 
           C 80,165 155,90 280,90 
           C 340,90 390,115 425,155 
           L 375,195 
           C 350,165 320,140 280,140 Z" 
        fill="url(#golan-grad-g)" />

  <!-- Accent Pulse Dot for Real-time Attendance Theme -->
  <circle cx="370" cy="155" r="22" fill="#34D399" />
</svg>
